<svg id="レイヤー_1" data-name="レイヤー 1" xmlns="http://www.w3.org/2000/svg" viewBox="0 0 48 48"><defs><style>.cls-1{fill:#fff;}.cls-2{fill:#cecede;}.cls-3{fill:#222;}</style></defs><rect class="cls-1" x="19.77" y="9.47" width="8.3" height="2.73"/><path class="cls-1" d="M28.92,12.23h-10a2,2,0,0,0,0,4V27.91A6,6,0,0,0,19.31,30l2.74,7.2a2,2,0,0,0,3.74,0L28.53,30a6.18,6.18,0,0,0,.39-2.13V16.23a2,2,0,0,0,0-4Z"/><path class="cls-2" d="M26.92,25.15v2.77a4,4,0,0,1-.26,1.41L24.09,36a.21.21,0,0,1-.38,0l-2.53-6.71a4.11,4.11,0,0,1-.26-1.43V25.15Z"/><path class="cls-3" d="M29.07,11.25v-.78h1.6a1,1,0,0,0,0-2H16.92a1,1,0,0,0,0,2h1.85v.78a3,3,0,0,0-.85,5.8V27.91a7.07,7.07,0,0,0,.45,2.49l2.74,7.2a3,3,0,0,0,2.81,1.93h0a3,3,0,0,0,2.8-1.93l2.74-7.2a7.09,7.09,0,0,0,.46-2.49V17.05a3,3,0,0,0-.85-5.8Zm-2-.78v.76h-6.3v-.76Zm1.85,4.76h-4a1,1,0,0,0,0,2h3V27.91a4.93,4.93,0,0,1-.33,1.78l-2.74,7.2a1,1,0,0,1-1.87,0l-2.74-7.21a5,5,0,0,1-.32-1.77V26.17h1a1,1,0,0,0,0-2h-1v-1h1a1,1,0,0,0,0-2h-1v-1h1a1,1,0,0,0,0-2h-1v-2a1,1,0,0,0-1-1,1,1,0,0,1,0-2h10a1,1,0,0,1,0,2Z"/><path class="cls-3" d="M33.83,8.47h-.68a1,1,0,0,0,0,2h.68a1.48,1.48,0,0,1,0,2.95h-.68a1,1,0,0,0,0,2h.68a3.48,3.48,0,0,0,0-6.95Z"/></svg>